{"title":"The Prestige-720p MP4 AAC x264 BRRip 2006-CC","uid":7471095,"size":3195377168,"categoryP":"video","categoryS":"hd___movies","magnet":"?xt=urn:btih:34c2bb6b71540e83ce5a4bcbdbeca3feeabc2c42&amp;dn=The+Prestige-720p+MP4+AAC+x264+BRRip+2006-CC&amp;tr=udp%3A%2F%2Ftracker.openbittorrent.com%3A80&amp;tr=udp%3A%2F%2Fopen.demonii.com%3A1337&amp;tr=udp%3A%2F%2Ftracker.coppersurfer.tk%3A6969&amp;tr=udp%3A%2F%2Fexodus.desync.com%3A6969","seeders":1,"leechers":1,"uploader":"Caveman44","files":-1,"time":1343153867,"description":" &lt;a href=&quot;http://www.imdb.com/title/tt0482571/&quot; rel=&quot;nofollow&quot; target=&quot;_NEW&quot;&gt;http://www.imdb.com/title/tt0482571/&lt;/a&gt;\n\nSource: The.Prestige.2006.720p.BluRay.x264-ESiR\n\nSubs: Arabic, Brazilian, Bulgarian, Chinese, Croatian, Czech, Danish, Dutch, English, Finnish, German, Greek, Hungarian, Norwegian, Portuguese, Romanian, Slovenian, Spanish, Swedish, Turkish and Vietnamese.\n\nSample and Screens included.\n\nGeneral\nComplete name                    : The Prestige-720p MP4 AAC x264 BRRip 2006-CC.mp4\nFormat                           : MPEG-4\nFormat profile                   : Base Media\nCodec ID                         : isom\nFile size                        : 2.95 GiB\nDuration                         : 2h 10mn\nOverall bit rate                 : 3 232 Kbps\nEncoded date                     : UTC 2012-07-22 15:40:55\n\nVideo\nID                               : 1\nFormat                           : AVC\nFormat/Info                      : Advanced Video Codec\nFormat profile                   : &lt;a class=&quot;__cf_email__&quot; href=&quot;/cdn-cgi/l/email-protection&quot; data-cfemail=&quot;1e567779765e522d302f&quot;&gt;[email&amp;#160;protected]&lt;/a&gt;&lt;script cf-hash='f9e31' type=&quot;text/javascript&quot;&gt;\n/* &lt;![CDATA[ */!function(){try{var t=&quot;currentScript&quot;in document?document.currentScript:function(){for(var t=document.getElementsByTagName(&quot;script&quot;),e=t.length;e--;)if(t[e].getAttribute(&quot;cf-hash&quot;))return t[e]}();if(t&amp;&amp;t.previousSibling){var e,r,n,i,c=t.previousSibling,a=c.getAttribute(&quot;data-cfemail&quot;);if(a){for(e=&quot;&quot;,r=parseInt(a.substr(0,2),16),n=2;a.length-n;n+=2)i=parseInt(a.substr(n,2),16)^r,e+=String.fromCharCode(i);e=document.createTextNode(e),c.parentNode.replaceChild(e,c)}}}catch(u){}}();/* ]]&gt; */&lt;/script&gt;\nFormat settings, CABAC           : Yes\nFormat settings, ReFrames        : 5 frames\nCodec ID                         : avc1\nCodec ID/Info                    : Advanced Video Coding\nDuration                         : 2h 10mn\nBit rate mode                    : Variable\nBit rate                         : 2 846 Kbps\nNominal bit rate                 : 2 890 Kbps\nMaximum bit rate                 : 15.8 Mbps\nWidth                            : 1 280 pixels\nHeight                           : 544 pixels\nDisplay aspect ratio             : 2.35:1\nFrame rate mode                  : Variable\nFrame rate                       : 23.976 fps\nMinimum frame rate               : 15.873 fps\nMaximum frame rate               : 24.390 fps\nResolution                       : 24 bits\nColorimetry                      : 4:2:0\nScan type                        : Progressive\nBits/(Pixel*Frame)               : 0.170\nStream size                      : 2.59 GiB (88%)\nWriting library                  : x264 core 112\n\nAudio\nID                               : 2\nFormat                           : AAC\nFormat/Info                      : Advanced Audio Codec\nFormat version                   : Version 4\nFormat profile                   : LC\nFormat settings, SBR             : No\nCodec ID                         : 40\nDuration                         : 2h 10mn\nBit rate mode                    : Variable\nBit rate                         : 384 Kbps\nMaximum bit rate                 : 819 Kbps\nChannel(s)                       : 6 channels\nChannel positions                : Front: L C R, Rear: L R, LFE\nSampling rate                    : 48.0 KHz\nResolution                       : 16 bits\nStream size                      : 357 MiB (12%)\nLanguage                         : English\n\nEnjoy...\n\nRequested by cmptrluvr's. ( more coming up )","torrent":{"xt":"urn:btih:34c2bb6b71540e83ce5a4bcbdbeca3feeabc2c42","amp;dn":"The+Prestige-720p+MP4+AAC+x264+BRRip+2006-CC","amp;tr":["udp%3A%2F%2Ftracker.openbittorrent.com%3A80","udp%3A%2F%2Fopen.demonii.com%3A1337","udp%3A%2F%2Ftracker.coppersurfer.tk%3A6969","udp%3A%2F%2Fexodus.desync.com%3A6969"],"infoHash":"34c2bb6b71540e83ce5a4bcbdbeca3feeabc2c42","infoHashBuffer":{"type":"Buffer","data":[52,194,187,107,113,84,14,131,206,90,75,203,219,236,163,254,234,188,44,66]},"announce":[],"urlList":[]}}